<?xml version="1.0" standalone="no"?> <!DOCTYPE svg PUBLIC "-//W3C//DTD SVG 1.0//EN" "http://www.w3.org/TR/2001/REC-SVG-20010904/DTD/svg10.dtd" > <svg xmlns="http://www.w3.org/2000/svg" width="100%" height="100%">
<defs >
<font id="myriadproblack" horiz-adv-x="935" ><font-face
    font-family="Myriad Pro Black"
    units-per-em="2048"
    panose-1="2 11 8 3 3 4 3 2 2 4"
    ascent="1536"
    descent="-512"
    alphabetic="0" />
<missing-glyph horiz-adv-x="1024" d="M0 0V1434H1024V0H0ZM512 809L860 1331H164L512 809ZM573 717L922 195V1239L573 717ZM164 102H860L512 625L164 102ZM102 1239V195L451 717L102 1239Z" />
<glyph unicode=" " glyph-name="space" horiz-adv-x="405" />
<glyph unicode="!" glyph-name="exclam" horiz-adv-x="581" d="M428 475H154L100 1380H481L428 475ZM291 -23H289Q197 -23 139 37T80 188Q80 282 138 341T291 401Q384 401 441 342T500 188Q500 97 443 37T291 -23Z" />
<glyph unicode="&quot;" glyph-name="quotedbl" horiz-adv-x="866" d="M59 1417H377L326 836H111L59 1417ZM489 1417H809L756 836H543L489 1417Z" />
<glyph unicode="#" glyph-name="numbersign" horiz-adv-x="1173" d="M487 569H664L692 770H518L487 569ZM399 0H188L242 350H76V569H279L309 770H139V989H344L395 1331H602L551 989H727L778 1331H987L936 989H1098V770H901L872 569H1038V350H834L784 0H573L625
350H451L399 0Z" />
<glyph unicode="$" glyph-name="dollar" horiz-adv-x="1173" d="M700 -180H467V10Q364 16 265 41T104 98L170 381Q354 291 530 291Q613 291 661 314T709 385Q709 432 661 465T496 535Q426 557 370 582T266 641T185 714T134 805T115 918Q115 1060 210 1161T477
1298V1489H709V1315Q883 1310 1020 1249L954 977Q953 977 929 987T895 1001T859 1013T813 1027T765 1036T707 1044T645 1047Q561 1047 524 1022T487 958Q487 921 542 888T729 809Q919 746 1000 654T1081 420Q1081 274 981 168T700 29V-180Z" />
<glyph unicode="%" glyph-name="percent" horiz-adv-x="1882" d="M446 1354H449Q626 1354 726 1241T827 958Q827 858 795 776T708 641T583 561T436 532Q271 532 162 644T53 936Q53 1049 99 1143T236 1295T446 1354ZM442 1157H440Q380 1157 352 1099T324 942T355
787T444 729Q557 729 557 942Q557 1157 442 1157ZM655 -23H465L1223 1352H1411L655 -23ZM1446 801H1448Q1626 801 1726 689T1827 406Q1827 305 1795 223T1707 89T1583 8T1436 -20Q1271 -20 1162 91T1053 383Q1053 497 1098 591T1235 743T1446 801ZM1442 604H1440Q1380
604 1352 545T1323 389Q1323 290 1353 233T1444 176Q1556 176 1556 389Q1556 604 1442 604Z" />
<glyph unicode="&amp;" glyph-name="ampersand" horiz-adv-x="1454" d="M1438 0H1012Q953 63 938 84Q786 -23 569 -23Q464 -23 378 0T235 61T138 150T81 257T63 371Q63 502 131 601T324 764V770Q280 815 251 885T221 1028Q221 1097 249 1162T330 1281T471 1369T666
1403Q841 1403 955 1311T1069 1067Q1069 851 809 717L807 709Q825 689 865 643T935 564T991 506Q1029 565 1059 649T1102 813H1430Q1371 483 1188 283Q1320 126 1438 0ZM618 244H621Q712 244 768 289Q743 312 716 339T658 400T606 457T545 524T489 586Q412 522
412 432Q412 353 467 299T618 244ZM655 1178H653Q607 1178 579 1144T551 1063Q551 978 641 885Q704 933 731 972T758 1059Q758 1105 731 1141T655 1178Z" />
<glyph unicode="&apos;" glyph-name="quotesingle" horiz-adv-x="436" d="M59 1417H377L326 836H111L59 1417Z" />
<glyph unicode="(" glyph-name="parenleft" horiz-adv-x="671" d="M336 1413H588Q401 1072 401 588Q401 110 588 -236H336Q245 -94 182 113T119 588Q120 774 155 943T235 1220T336 1413Z" />
<glyph unicode=")" glyph-name="parenright" horiz-adv-x="671" d="M334 -236H84Q166 -84 217 126T268 590T217 1052T84 1413H334Q425 1273 489 1067T553 590Q552 449 533 319T480 86T411 -93T334 -236Z" />
<glyph unicode="*" glyph-name="asterisk" horiz-adv-x="964" d="M596 1403L799 1286L569 1024V1018L903 1096V858L565 922V918L799 662L594 543L479 870L475 868L365 543L162 662L393 922L391 924L61 858V1096L387 1018L389 1024L162 1286L369 1403L477 1077H481L596
1403Z" />
<glyph unicode="+" glyph-name="plus" horiz-adv-x="1220" d="M496 1090H725V657H1139V436H725V0H496V436H82V657H496V1090Z" />
<glyph unicode="," glyph-name="comma" horiz-adv-x="579" d="M233 -221L-10 -242Q104 83 152 381L518 401Q398 49 233 -221Z" />
<glyph unicode="-" glyph-name="hyphen" horiz-adv-x="671" d="M61 651H610V412H61V651Z" />
<glyph unicode="." glyph-name="period" horiz-adv-x="579" d="M311 -23H309Q217 -23 159 38T100 193T159 347T311 408Q404 408 462 349T522 193Q522 99 463 38T311 -23Z" />
<glyph unicode="/" glyph-name="slash" horiz-adv-x="667" d="M285 -82H49L430 1403H666L285 -82Z" />
<glyph unicode="0" glyph-name="zero" horiz-adv-x="1173" d="M590 1354Q702 1354 792 1315T940 1211T1038 1056T1093 870T1110 668Q1110 519 1078 395T983 176T819 30T586 -23Q475 -23 386 15T237 118T138 272T81 458T63 664Q63 775 81 874T140 1062T241 1215T390
1316T590 1354ZM590 1075Q432 1075 432 666Q431 456 472 355T590 254Q741 254 741 666Q741 1075 590 1075Z" />
<glyph unicode="1" glyph-name="one" horiz-adv-x="1173" d="M483 0V1006H479L217 889L158 1163L537 1331H840V0H483Z" />
<glyph unicode="2" glyph-name="two" horiz-adv-x="1173" d="M1071 0H84V223L268 385Q491 579 584 689T678 895Q678 970 628 1014T479 1059Q345 1059 195 952L94 1217Q178 1276 299 1315T555 1354Q785 1354 916 1238T1047 924Q1047 661 737 412L606 307V303H1071V0Z" />
<glyph unicode="3" glyph-name="three" horiz-adv-x="1173" d="M76 72L145 348Q200 319 288 294T461 268Q562 268 620 304T678 410Q678 487 610 528T442 569H305V831H436Q473 831 508 837T574 856T625 894T645 952Q645 1004 598 1034T465 1065Q391 1065 313 1041T182
989L113 1253Q180 1296 299 1325T551 1354Q767 1354 892 1259T1018 1016Q1018 793 776 709V705Q899 684 980 598T1061 387Q1061 203 906 90T492 -23Q361 -23 251 3T76 72Z" />
<glyph unicode="4" glyph-name="four" horiz-adv-x="1173" d="M981 0H633V299H55V537L518 1331H981V571H1128V299H981V0ZM391 571H633V801Q633 832 643 1067H635Q622 1039 596 984T549 884T506 799L393 575L391 571Z" />
<glyph unicode="5" glyph-name="five" horiz-adv-x="1173" d="M1014 1331V1030H492L473 885Q502 889 551 889Q787 889 930 782Q1077 672 1077 451Q1077 358 1037 274T922 123T731 17T473 -23Q238 -23 86 51L147 326Q202 302 286 283T453 264Q515 264 567 278T658
331T698 430Q698 523 610 570T328 618Q244 618 152 608L238 1331H1014Z" />
<glyph unicode="6" glyph-name="six" horiz-adv-x="1173" d="M973 1348V1067Q942 1071 858 1067Q507 1052 434 815H442Q542 899 707 899Q790 899 864 871T997 789T1090 651T1124 463Q1124 328 1058 217T874 41T612 -23Q500 -23 407 9T251 96T143 226T79 387T59
565Q59 747 122 899T299 1155Q512 1344 850 1350Q897 1353 973 1348ZM606 246H608Q672 246 711 302T750 444Q750 481 741 515T713 578T662 624T586 641Q533 641 493 614T434 543Q424 522 424 465Q429 375 474 311T606 246Z" />
<glyph unicode="7" glyph-name="seven" horiz-adv-x="1173" d="M92 1331H1077V1102L543 0H150L686 1024V1028H92V1331Z" />
<glyph unicode="8" glyph-name="eight" horiz-adv-x="1173" d="M287 678V682Q198 731 151 806T104 971Q104 1143 243 1248T596 1354Q716 1354 809 1323T955 1239T1034 1128T1061 1006Q1061 918 1014 842T879 719V715Q977 678 1045 595T1114 389Q1114 203 969 90T575
-23Q470 -23 383 -1T237 59T138 145T79 246T61 352Q61 576 287 678ZM592 227Q656 227 696 266T737 365Q737 434 689 482T563 551Q504 535 470 492T436 387Q436 324 480 276T592 227ZM582 1108Q519 1108 485 1072T451 981Q451 930 495 890T610 827Q652 837 684 877T717
965Q717 1025 683 1066T582 1108Z" />
<glyph unicode="9" glyph-name="nine" horiz-adv-x="1173" d="M178 -16V266Q226 261 309 264Q459 267 563 328Q692 400 729 526L723 530Q642 455 477 455Q394 455 319 482T184 561T89 692T53 872Q53 1073 202 1213T575 1354Q710 1354 814 1306T981 1176T1074 992T1106
776Q1106 381 870 168Q669 -12 309 -23Q236 -23 178 -16ZM567 1087H565Q502 1087 461 1034T420 895Q420 819 460 765T578 711Q672 711 715 776Q727 799 727 858Q728 916 715 965T663 1050T567 1087Z" />
<glyph unicode=":" glyph-name="colon" horiz-adv-x="579" d="M311 612H309Q217 612 160 672T102 825Q102 919 160 978T311 1038T460 979T520 825Q520 732 462 672T311 612ZM311 -23H309Q218 -23 160 37T102 190Q102 283 160 343T311 403T460 344T520 190Q520
98 462 38T311 -23Z" />
<glyph unicode=";" glyph-name="semicolon" horiz-adv-x="579" d="M231 -221L-10 -242Q104 83 152 381L516 401Q396 49 231 -221ZM319 612H317Q226 612 169 672T111 825Q111 919 169 978T319 1038Q412 1038 469 980T528 825Q528 732 471 672T319 612Z" />
<glyph unicode="&lt;" glyph-name="less" horiz-adv-x="1220" d="M111 442V647L1110 1090V840L389 547V543L1110 250V0L111 442Z" />
<glyph unicode="=" glyph-name="equal" horiz-adv-x="1220" d="M1139 653H82V874H1139V653ZM1139 221H82V440H1139V221Z" />
<glyph unicode="&gt;" glyph-name="greater" horiz-adv-x="1220" d="M1110 655V434L111 0V250L852 543V547L111 842V1090L1110 655Z" />
<glyph unicode="?" glyph-name="question" horiz-adv-x="948" d="M600 473H281L279 524Q274 688 395 831Q436 880 451 899T486 954T506 1018Q506 1110 377 1116Q262 1116 174 1057L96 1321Q256 1405 461 1405Q663 1405 770 1312T877 1079Q877 1034 865 990T841
918T799 851T758 799T712 750Q704 741 700 737Q602 633 602 502L600 473ZM432 -23H430Q339 -23 281 37T223 188Q223 281 281 340T432 401Q525 401 583 342T643 188Q643 97 585 37T432 -23Z" />
<glyph unicode="@" glyph-name="at" horiz-adv-x="1605" d="M901 508L926 686Q904 692 879 692Q794 692 735 616T676 436Q676 322 762 322Q807 322 849 374T901 508ZM1100 -12L1137 -143Q1044 -182 959 -197T758 -213Q630 -213 514 -168T307 -42T164 163T111 434Q111
558 146 674T250 888T411 1058T626 1171T885 1212Q1157 1212 1335 1045T1513 621Q1513 400 1402 266T1114 131Q1037 131 990 169T930 281H924Q879 208 814 170T672 131Q566 131 502 204T438 403Q438 497 471 582T564 732T715 835T915 874Q985 874 1058 860T1169
823L1112 440Q1099 362 1109 324T1159 285Q1228 282 1287 368T1346 616Q1346 745 1292 847T1127 1011T862 1073Q747 1073 643 1030T459 909T332 714T285 457Q285 205 428 67T807 -72Q974 -72 1100 -12Z" />
<glyph unicode="A" glyph-name="A" horiz-adv-x="1382" d="M846 319H489L412 0H29L430 1380H922L1333 0H934L846 319ZM539 594H795L731 842L664 1114H659Q650 1076 630 979T598 840L539 594Z" />
<glyph unicode="B" glyph-name="B" horiz-adv-x="1292" d="M127 8V1362Q301 1391 563 1391Q718 1391 812 1377T985 1323Q1069 1285 1120 1211T1171 1040Q1171 947 1116 870T946 750V745Q1073 710 1145 621T1217 410Q1217 316 1176 240T1063 109Q895 -16 492 -16Q279
-16 127 8ZM494 1118V850H567Q683 850 742 887T801 993Q801 1056 754 1091T614 1126Q542 1126 494 1118ZM494 588V260Q520 256 600 256Q700 256 763 298T827 426Q827 509 761 548T582 588H494Z" />
<glyph unicode="C" glyph-name="C" horiz-adv-x="1232" d="M1110 326L1161 35Q1114 13 1021 -5T813 -23Q626 -23 481 33T247 185T115 404T70 668Q70 811 110 931T222 1137T390 1284T600 1374T838 1403Q950 1403 1043 1385T1184 1341L1112 1051Q987 1100 856 1100Q774
1100 704 1076T578 1003T491 875T459 692Q459 502 565 394T862 285Q1008 285 1110 326Z" />
<glyph unicode="D" glyph-name="D" horiz-adv-x="1454" d="M127 8V1362Q319 1391 567 1391Q763 1391 896 1358T1135 1253Q1384 1082 1384 723Q1384 524 1319 382T1143 156Q923 -16 496 -16Q271 -16 127 8ZM498 1100V276Q516 272 575 272Q667 270 741 295T872 373T960
512T991 713Q991 907 887 1007T610 1108Q534 1108 498 1100Z" />
<glyph unicode="E" glyph-name="E" horiz-adv-x="1130" d="M993 856V557H498V303H1053V0H127V1380H1024V1079H498V856H993Z" />
<glyph unicode="F" glyph-name="F" horiz-adv-x="1116" d="M127 0V1380H1014V1079H498V823H983V524H498V0H127Z" />
<glyph unicode="G" glyph-name="G" horiz-adv-x="1427" d="M1323 819V66Q1232 35 1102 11T848 -14Q461 -14 266 172Q170 263 120 392T70 672Q71 847 133 986T306 1213T561 1348T877 1395Q1008 1395 1112 1376T1276 1327L1202 1032Q1065 1090 874 1090Q787 1090
713 1067T582 996T492 871T459 690Q459 501 568 392T852 283Q933 283 967 295V532H782V819H1323Z" />
<glyph unicode="H" glyph-name="H" horiz-adv-x="1443" d="M127 1380H498V870H946V1380H1315V0H946V547H498V0H127V1380Z" />
<glyph unicode="I" glyph-name="I" horiz-adv-x="624" d="M127 1380H498V0H127V1380Z" />
<glyph unicode="J" glyph-name="J" horiz-adv-x="878" d="M391 528V1380H762V528Q762 237 629 107T238 -23Q96 -23 -8 10L33 307Q115 285 195 285Q291 285 341 339T391 528Z" />
<glyph unicode="K" glyph-name="K" horiz-adv-x="1323" d="M127 0V1380H494V795H498Q534 861 588 946L852 1380H1307L868 793L1323 0H895L604 559L494 418V0H127Z" />
<glyph unicode="L" glyph-name="L" horiz-adv-x="1081" d="M127 0V1380H498V309H1028V0H127Z" />
<glyph unicode="M" glyph-name="M" horiz-adv-x="1771" d="M1311 0L1294 494Q1286 815 1288 1051H1282Q1224 803 1137 510L999 29H711L594 508Q528 789 485 1051H481L459 494L438 0H98L182 1380H680L772 1010Q842 719 879 504H887Q971 867 1012 1012L1114 1380H1602L1671
0H1311Z" />
<glyph unicode="N" glyph-name="N" horiz-adv-x="1443" d="M465 0H127V1380H563L782 956Q891 759 999 473H1006Q977 724 977 1055V1380H1315V0H926L692 459Q546 733 459 958H453Q465 679 465 340V0Z" />
<glyph unicode="O" glyph-name="O" horiz-adv-x="1495" d="M756 1403Q886 1403 996 1366T1184 1263T1317 1110T1398 919T1425 705Q1425 371 1239 174T733 -23Q608 -23 501 13T315 115T181 268T98 462T70 682Q70 883 152 1046T392 1306T756 1403ZM750 1110Q618
1110 540 995T461 688Q461 495 539 383T752 270Q883 270 958 386T1034 692Q1034 875 958 992T750 1110Z" />
<glyph unicode="P" glyph-name="P" horiz-adv-x="1232" d="M127 0V1362Q308 1391 584 1391Q879 1391 1020 1282Q1092 1228 1135 1140T1178 948T1143 755T1044 608Q884 465 584 465Q538 465 494 469V0H127ZM494 1104V752Q534 748 578 748Q687 748 750 799T813 940Q813
1019 760 1065T604 1112Q530 1112 494 1104Z" />
<glyph unicode="Q" glyph-name="Q" horiz-adv-x="1495" d="M1430 29L1325 -252Q1108 -188 772 -45Q742 -31 672 -23Q579 -16 493 15T329 104T194 242T104 435T70 680Q70 830 117 962T252 1192T470 1346T760 1403Q889 1403 998 1366T1184 1263T1317 1109T1398 919T1425
707Q1425 495 1341 336T1128 113V102Q1234 70 1430 29ZM750 270H752Q884 270 959 386T1034 692Q1034 877 958 993T750 1110T540 993T461 690Q461 502 539 386T750 270Z" />
<glyph unicode="R" glyph-name="R" horiz-adv-x="1263" d="M127 0V1362Q315 1391 573 1391Q897 1391 1040 1284Q1178 1179 1178 983Q1178 863 1105 773T940 649V641Q1005 613 1046 552T1116 395Q1132 342 1157 248T1200 89T1231 0H852Q815 72 756 317Q729 438
686 478T553 518H494V0H127ZM494 1110V782H590Q693 782 751 829T809 954T760 1074T618 1118Q530 1118 494 1110Z" />
<glyph unicode="S" glyph-name="S" horiz-adv-x="1148" d="M82 63L152 369Q222 333 318 308T510 283Q603 283 650 312T698 395Q698 445 650 479T481 555Q94 691 94 971Q94 1159 243 1281T647 1403Q860 1403 1022 1331L944 1036Q800 1102 643 1102Q560 1102 515
1074T469 999Q469 951 519 921T717 836Q902 768 989 667T1077 420Q1077 329 1041 250T935 110T749 13T487 -23Q372 -23 260 3T82 63Z" />
<glyph unicode="T" glyph-name="T" horiz-adv-x="1167" d="M395 0V1071H43V1380H1124V1071H766V0H395Z" />
<glyph unicode="U" glyph-name="U" horiz-adv-x="1427" d="M125 1380H496V598Q496 439 550 355T713 270Q932 270 932 598V1380H1303V618Q1303 301 1149 139T702 -23Q125 -23 125 629V1380Z" />
<glyph unicode="V" glyph-name="V" horiz-adv-x="1374" d="M899 0H463L25 1380H430L575 838Q642 615 690 354H694Q745 601 809 831L958 1380H1352L899 0Z" />
<glyph unicode="W" glyph-name="W" horiz-adv-x="1855" d="M758 0H348L31 1380H428L508 868Q515 821 541 643T580 383H584Q608 571 664 872L752 1380H1147L1233 848Q1268 615 1294 393H1298Q1330 624 1368 872L1450 1380H1825L1485 0H1081L989 541Q955 749 932
954H928Q886 659 862 539L758 0Z" />
<glyph unicode="X" glyph-name="X" horiz-adv-x="1292" d="M1268 0H840L737 225L631 465H627Q616 429 602 392T569 305T539 227L446 0H27L414 698L39 1380H465L557 1161Q608 1047 649 934H655L735 1159L821 1380H1243L866 707L1268 0Z" />
<glyph unicode="Y" glyph-name="Y" horiz-adv-x="1288" d="M819 0H451V557L14 1380H438L555 1069Q589 985 649 815H653Q668 862 698 948T741 1069L856 1380H1272L819 571V0Z" />
<glyph unicode="Z" glyph-name="Z" horiz-adv-x="1204" d="M43 0V197L653 1067V1075H100V1380H1133V1169L541 313V305H1143V0H43Z" />
<glyph unicode="[" glyph-name="bracketleft" horiz-adv-x="671" d="M565 -229H129V1405H565V1208H389V-33H565V-229Z" />
<glyph unicode="\" glyph-name="backslash" horiz-adv-x="667" d="M618 -82H383L33 1403H268L618 -82Z" />
<glyph unicode="]" glyph-name="bracketright" horiz-adv-x="671" d="M106 1405H543V-229H106V-33H283V1208H106V1405Z" />
<glyph unicode="^" glyph-name="asciicircum" horiz-adv-x="1220" d="M1151 352H893L612 1055H606L324 352H72L504 1331H719L1151 352Z" />
<glyph unicode="_" glyph-name="underscore" horiz-adv-x="1024" d="M0 -154H1024V-256H0V-154Z" />
<glyph unicode="`" glyph-name="grave" horiz-adv-x="614" d="M-8 1446H319L494 1126H244L-8 1446Z" />
<glyph unicode="a" glyph-name="a" horiz-adv-x="1122" d="M1010 586V246Q1010 68 1026 0H694L674 88H668Q568 -23 387 -23Q238 -23 147 70T55 295Q55 394 98 469T219 591T403 661T639 686V694Q639 780 475 780Q400 780 322 758T190 705L125 940Q302 1030 543
1030Q669 1030 761 997T907 902T985 762T1010 586ZM651 379V461Q538 461 477 428T416 330Q416 283 444 258T520 233Q561 233 598 259T647 326Q651 342 651 379Z" />
<glyph unicode="b" glyph-name="b" horiz-adv-x="1249" d="M115 319V1454H483V905H487Q532 964 605 997T774 1030Q957 1030 1073 892T1186 524Q1186 392 1147 286T1042 113T894 12T723 -23Q635 -23 560 13T436 129H432L418 0H106Q115 119 115 319ZM483 573V438Q483
415 487 387Q499 337 539 302T633 266Q716 266 763 328T811 508Q811 616 767 682T633 748Q579 748 538 713T487 623Q483 589 483 573Z" />
<glyph unicode="c" glyph-name="c" horiz-adv-x="925" d="M846 291L887 20Q784 -23 608 -23Q357 -23 210 116T63 496Q63 605 100 700T210 870T396 987T653 1030Q786 1030 887 995L834 723Q766 750 676 750Q571 750 506 684T440 508Q440 391 510 329T684 266Q787
266 846 291Z" />
<glyph unicode="d" glyph-name="d" horiz-adv-x="1249" d="M766 1454H1135V319Q1135 136 1143 0H815L801 137H797Q749 56 667 17T492 -23Q375 -23 278 40T122 223T63 498Q62 741 194 885T514 1030Q693 1030 762 934H766V1454ZM766 459V573Q766 604 764 621Q753
675 713 712T616 750Q529 750 484 681T438 506Q438 394 487 332T616 270Q670 270 710 305T760 391Q766 423 766 459Z" />
<glyph unicode="e" glyph-name="e" horiz-adv-x="1103" d="M1036 375H414Q423 317 497 284T672 250Q827 250 948 289L995 43Q832 -23 618 -23Q354 -23 209 114T63 494Q63 567 81 640T141 784T241 909T389 996T586 1030Q704 1030 795 989T941 876T1023 712T1051
514Q1051 435 1036 375ZM410 625H711Q711 650 705 675T684 727T639 771T567 788Q529 788 499 772T450 730T422 678T410 625Z" />
<glyph unicode="f" glyph-name="f" horiz-adv-x="743" d="M528 0H158V737H29V1008H158V1042Q158 1133 191 1223T289 1372Q402 1477 582 1477Q678 1477 752 1458L743 1176Q704 1188 649 1188Q591 1188 558 1151T524 1057V1008H709V737H528V0Z" />
<glyph unicode="g" glyph-name="g" horiz-adv-x="1220" d="M1106 696V147Q1106 -166 950 -303Q802 -428 524 -428Q298 -428 150 -354L219 -76Q272 -104 351 -125T510 -147Q614 -147 678 -90T743 80V125H739Q651 12 487 12Q302 12 183 148T63 502Q63 735 195 882T520
1030Q697 1030 780 901H784L797 1008H1116Q1106 905 1106 696ZM737 457V592Q737 611 733 639Q721 693 687 723T602 754Q533 754 486 689T438 508Q438 408 482 345T602 281Q651 281 686 309T731 381Q737 401 737 457Z" />
<glyph unicode="h" glyph-name="h" horiz-adv-x="1226" d="M115 0V1454H483V901H487Q544 967 606 995Q674 1030 760 1030Q930 1030 1021 914T1112 584V0H743V543Q743 733 612 733Q527 733 494 653Q483 633 483 594V0H115Z" />
<glyph unicode="i" glyph-name="i" horiz-adv-x="598" d="M483 0H115V1008H483V0ZM214 1460T299 1460T434 1412T487 1286Q487 1211 435 1161T297 1110Q213 1110 162 1160T111 1286Q111 1362 162 1411Z" />
<glyph unicode="j" glyph-name="j" horiz-adv-x="638" d="M-41 -444L-76 -158Q55 -145 102 -94Q134 -63 148 6T162 213V1008H530V135Q530 -181 381 -317Q236 -444 -41 -444ZM261 1460T346 1460T481 1411T532 1286Q534 1211 482 1161T342 1110Q259 1110 209 1160T158
1286Q158 1362 209 1411Z" />
<glyph unicode="k" glyph-name="k" horiz-adv-x="1177" d="M483 1454V598H487Q535 693 553 721L719 1008H1159L811 602L1210 0H756L557 385L483 287V0H115V1454H483Z" />
<glyph unicode="l" glyph-name="l" horiz-adv-x="598" d="M115 0V1454H483V0H115Z" />
<glyph unicode="m" glyph-name="m" horiz-adv-x="1783" d="M115 0V666Q115 841 106 1008H416L430 883H438Q549 1030 735 1030Q832 1030 904 988T1008 870H1012Q1077 953 1151 989Q1228 1030 1329 1030Q1492 1030 1581 916T1671 594V0H1313V539Q1313 735 1194 735Q1152
735 1124 711T1081 649Q1071 624 1071 575V0H713V549Q713 735 596 735Q519 735 483 651Q473 629 473 578V0H115Z" />
<glyph unicode="n" glyph-name="n" horiz-adv-x="1226" d="M115 0V666Q115 841 106 1008H424L440 879H449Q465 903 488 926T549 974T638 1014T750 1030Q925 1030 1018 916T1112 594V0H743V549Q743 733 614 733Q530 733 494 645Q483 623 483 571V0H115Z" />
<glyph unicode="o" glyph-name="o" horiz-adv-x="1206" d="M618 1030Q854 1030 998 887T1143 514Q1143 381 1098 276T976 107T803 10T598 -23Q446 -23 326 38T135 218T63 498Q63 739 212 884T618 1030ZM606 770Q549 770 511 730T459 633T444 504Q444 385 485 312T608
238Q681 238 721 309T762 504Q762 618 723 694T606 770Z" />
<glyph unicode="p" glyph-name="p" horiz-adv-x="1249" d="M115 -406V666Q115 837 106 1008H424L440 881H444Q560 1030 770 1030Q850 1030 924 995T1057 897T1151 734T1186 516Q1186 409 1159 319T1088 166T984 61T859 -3T727 -23Q645 -23 581 5T487 74H483V-406H115ZM483
565V440Q483 406 489 379Q501 328 540 293T633 258Q715 258 763 324T811 500T767 676T637 743Q582 743 540 705T487 612Q483 598 483 565Z" />
<glyph unicode="q" glyph-name="q" horiz-adv-x="1249" d="M766 -406V115H762Q666 -23 477 -23Q397 -23 323 12T191 112T98 275T63 492Q63 620 101 724T202 894T343 995T504 1030Q687 1030 772 905L776 903L784 1008H1143Q1135 798 1135 694V-406H766ZM766 444V578Q766
606 762 618Q753 671 713 707T616 743Q529 743 484 677T438 504Q438 392 487 329T614 266Q669 266 710 301T760 385Q766 403 766 444Z" />
<glyph unicode="r" glyph-name="r" horiz-adv-x="825" d="M115 0V668Q115 857 106 1008H422L434 825H442Q479 930 556 980T711 1030Q758 1030 784 1024V678Q741 688 690 688Q608 688 556 655T489 561Q483 534 483 498V0H115Z" />
<glyph unicode="s" glyph-name="s" horiz-adv-x="923" d="M61 49L123 309Q169 281 253 257T403 233Q512 233 512 289Q512 317 487 334T381 377Q225 426 155 507T86 684Q86 836 205 933T520 1030Q701 1030 821 973L762 723Q645 778 539 778Q438 778 438 721Q438
696 469 677T590 629Q735 581 799 505T866 315Q866 164 749 71T406 -23Q201 -23 61 49Z" />
<glyph unicode="t" glyph-name="t" horiz-adv-x="784" d="M158 1198L518 1294V1008H727V737H518V449Q518 357 544 318T635 279Q692 279 723 287V6Q634 -23 504 -23Q425 -23 359 2T252 70Q158 162 158 385V737H33V1008H158V1198Z" />
<glyph unicode="u" glyph-name="u" horiz-adv-x="1224" d="M1108 1008V344Q1108 172 1116 0H799L782 133H774Q669 -23 469 -23Q298 -23 206 87T113 414V1008H481V473Q481 274 610 274Q657 274 686 299T729 360Q739 379 739 414V1008H1108Z" />
<glyph unicode="v" glyph-name="v" horiz-adv-x="1128" d="M16 1008H418L526 580Q552 480 573 342H580Q600 482 625 580L725 1008H1112L745 0H375L16 1008Z" />
<glyph unicode="w" glyph-name="w" horiz-adv-x="1574" d="M16 1008H391L451 637Q463 562 500 303H504Q512 356 523 413T550 540T571 635L651 1008H940L1016 649Q1066 416 1083 303H1087Q1103 448 1137 653L1198 1008H1559L1257 0H909L840 299Q818 398 784 606H780Q761
430 727 303L653 0H305L16 1008Z" />
<glyph unicode="x" glyph-name="x" horiz-adv-x="1114" d="M6 1008H418L498 860Q542 778 571 715H578L643 866L711 1008H1110L784 530L1112 0H694L614 162Q570 249 549 305H543Q486 179 479 162L406 0H2L336 514L6 1008Z" />
<glyph unicode="y" glyph-name="y" horiz-adv-x="1116" d="M10 1008H420L541 555Q547 530 562 467T584 377H592Q598 401 610 464T629 555L721 1008H1114L899 369Q792 68 710 -79T539 -305Q400 -430 205 -453L129 -141Q192 -131 254 -102Q288 -89 321 -63T373 -10Q393
13 393 35Q393 52 379 90L10 1008Z" />
<glyph unicode="z" glyph-name="z" horiz-adv-x="995" d="M49 0V211L307 524Q384 613 477 711V717H82V1008H930V788L688 494Q574 359 508 297V293H948V0H49Z" />
<glyph unicode="{" glyph-name="braceleft" horiz-adv-x="671" d="M63 500V678Q113 681 145 694T192 728T210 769T215 813Q215 834 205 969Q197 1075 197 1126Q197 1405 514 1405H598V1206H561Q503 1205 478 1171T453 1073Q453 1049 461 971T469 836Q470 718 426
665T283 592V588Q381 568 425 515T469 342Q469 283 461 205T453 104Q453 39 477 5T561 -31H598V-229H512Q197 -229 197 49Q197 101 205 207Q215 345 215 365Q215 390 211 408T192 448T146 483T63 500Z" />
<glyph unicode="|" glyph-name="bar" horiz-adv-x="618" d="M182 1536H436V-512H182V1536Z" />
<glyph unicode="}" glyph-name="braceright" horiz-adv-x="671" d="M606 678V500Q557 497 525 484T480 449T462 408T457 365Q457 299 467 207Q475 101 475 49Q475 -229 160 -229H74V-31H109Q170 -30 194 4T219 104Q219 127 211 205T203 342Q200 461 245 514T389
588V592Q290 611 245 664T203 836Q203 893 211 971T219 1073Q219 1137 194 1171T111 1206H74V1405H158Q475 1405 475 1126Q475 1075 467 969Q457 879 457 813Q457 788 461 769T479 729T525 694T606 678Z" />
<glyph unicode="~" glyph-name="asciitilde" horiz-adv-x="1220" d="M309 377H82Q82 595 163 694T387 793Q460 793 520 770T670 692Q778 628 806 618Q825 612 840 612Q903 612 911 778H1139Q1155 358 850 358Q776 358 714 382T567 459Q490 507 455 525T395 543Q360
543 338 508T309 377Z" />
</font>
</defs>
</svg>
